<svg width="1024" height="1024" viewBox="0 0 1024 1024" xmlns="http://www.w3.org/2000/svg">
  <defs>
    <linearGradient id="bg" x1="512" y1="0" x2="512" y2="1024" gradientUnits="userSpaceOnUse">
      <stop offset="0" stop-color="#25D366"/>
      <stop offset="1" stop-color="#0A8F45"/>
    </linearGradient>
  </defs>
  <rect width="1024" height="1024" rx="232" fill="url(#bg)"/>
  <g transform="translate(200,196) scale(13)" fill="#ffffff">
    <path d="M38.9,8.1A20.9,20.9,0,0,0,3.2,22.8,19.8,19.8,0,0,0,6,33.2L3,44l11.1-2.9a20.3,20.3,0,0,0,10,2.5A20.8,20.8,0,0,0,38.9,8.1Zm-14.8,32a17.1,17.1,0,0,1-9.5-2.8L8,39.1l1.8-6.4a17.9,17.9,0,0,1-3.1-9.9A17.4,17.4,0,1,1,24.1,40.1Z"/>
  </g>
</svg>
